<svg width="22" height="29" viewBox="0 0 22 29" fill="none" xmlns="http://www.w3.org/2000/svg">
<path d="M10.2464 3.67076C11.2601 3.67076 12.0818 2.84903 12.0818 1.83538C12.0818 0.821728 11.2601 0 10.2464 0C9.23275 0 8.41103 0.821728 8.41103 1.83538C8.41103 2.84903 9.23275 3.67076 10.2464 3.67076Z" fill="#68E7C2"/>
<path d="M3.21135 13.3141C6.09813 11.4773 8.48546 8.95454 10.1604 5.97091C10.2098 5.88318 10.2855 5.81317 10.3768 5.77074C10.4681 5.72831 10.5704 5.7156 10.6694 5.7344C10.7683 5.75321 10.8588 5.80258 10.9281 5.87555C10.9975 5.94853 11.0422 6.04143 11.056 6.14117L11.0602 6.17522C11.2577 8.13914 11.4586 10.1167 11.5208 12.1138C11.5829 14.1109 11.5004 16.1293 11.1403 18.1222C10.7802 20.1151 10.1408 22.0722 9.1159 23.8505C8.606 24.7491 7.99071 25.5836 7.28307 26.3363C6.55777 27.0871 5.66562 27.7614 4.5649 28.0627C4.01458 28.2088 3.44055 28.2429 2.8768 28.1632C2.2918 28.0854 1.73568 27.862 1.25934 27.5136C0.780153 27.1482 0.418024 26.6509 0.217366 26.0826C0.022951 25.536 -0.0423149 24.9518 0.0266776 24.3758C0.087313 23.808 0.265928 23.2591 0.551072 22.7643C0.827756 22.2849 1.18053 21.8536 1.5956 21.4874C2.40603 20.7612 3.3731 20.2785 4.34016 19.9329C5.30723 19.5873 6.28195 19.354 7.21156 19.0816C8.1322 18.8086 9.03252 18.4712 9.90589 18.072C11.6546 17.2552 13.2909 16.2166 14.7744 14.9818C15.5157 14.3645 16.22 13.7041 16.8839 13.0043C17.21 12.6484 17.5351 12.2926 17.8399 11.9197C17.9991 11.7375 18.1438 11.5452 18.2919 11.3562L18.5141 11.071C18.5788 10.9807 18.6401 10.9007 18.6972 10.8037C19.1526 10.0665 19.4471 9.14196 19.3986 8.32302C19.3731 7.90589 19.253 7.5824 18.9977 7.30914C18.7285 7.02816 18.3818 6.83374 18.0017 6.75069C17.6213 6.65862 17.222 6.68445 16.8567 6.82475C16.4772 6.97574 16.1411 7.21852 15.8785 7.53132C15.6024 7.85548 15.3943 8.23183 15.2665 8.638C15.1397 9.05113 15.0872 9.48347 15.1115 9.91493C15.1541 10.7994 15.4597 11.6805 15.9126 12.4969C16.379 13.3302 16.9252 14.1163 17.5437 14.8439C18.8044 16.3294 20.175 17.8421 21.1191 19.6852C21.5856 20.6114 21.9184 21.6295 21.9865 22.7004C22.062 23.7849 21.8191 24.8678 21.2876 25.8162C20.7472 26.7652 19.9261 27.5236 18.9372 27.987C18.2008 28.321 17.403 28.4981 16.5944 28.507C15.7858 28.5159 14.9843 28.3565 14.2407 28.0389C13.7238 27.8176 13.2653 27.4793 12.9016 27.0505C12.1839 26.1865 11.9439 24.9904 12.275 23.9944C12.28 23.9793 12.288 23.9653 12.2984 23.9533C12.3088 23.9412 12.3215 23.9314 12.3357 23.9243C12.35 23.9172 12.3655 23.9129 12.3814 23.9118C12.3972 23.9107 12.4132 23.9127 12.4283 23.9178C12.4505 23.9247 12.4704 23.9378 12.4855 23.9556C12.5005 23.9734 12.5102 23.9951 12.5134 24.0182C12.6275 24.9811 12.9739 25.8451 13.563 26.47C14.1283 27.1025 15.0017 27.4302 15.9109 27.5375C16.807 27.6582 17.7189 27.5187 18.538 27.1357C19.3484 26.7527 20.0205 26.1282 20.4619 25.348C20.8972 24.5591 21.0928 23.6602 21.0246 22.7617C20.9641 21.8585 20.6713 20.9613 20.2474 20.1296C19.7959 19.2873 19.2664 18.4892 18.6657 17.7459C18.0698 16.9798 17.4219 16.2587 16.7681 15.4943C16.1037 14.7189 15.5158 13.881 15.0128 12.9923C14.508 12.0891 14.1308 11.0616 14.0721 9.96771C14.0374 9.41217 14.1022 8.85488 14.2636 8.32217C14.4319 7.78162 14.7072 7.28047 15.0732 6.84859C15.4497 6.39935 15.9322 6.05092 16.477 5.8347C17.0416 5.62111 17.6564 5.57751 18.2454 5.70927C18.8345 5.84104 19.3721 6.1424 19.7919 6.57618C20.0075 6.80558 20.1785 7.07321 20.2959 7.36532C20.4002 7.64859 20.4616 7.94585 20.4781 8.24726C20.5103 8.80526 20.444 9.36459 20.2823 9.89961C20.1345 10.4236 19.9139 10.9242 19.6268 11.3868C19.5561 11.5034 19.471 11.6201 19.3918 11.7273L19.1586 12.027C19.0028 12.2253 18.8504 12.4279 18.6844 12.6186C18.3643 13.0094 18.0246 13.3848 17.6824 13.7551C16.9858 14.4875 16.2468 15.1782 15.4691 15.8237C13.9129 17.12 12.1962 18.2104 10.3613 19.068C9.43844 19.4895 8.48722 19.8459 7.51462 20.1347C6.54926 20.4164 5.59752 20.6454 4.70536 20.9647C3.81321 21.2839 2.98831 21.707 2.32175 22.3029C1.99403 22.5901 1.71565 22.9292 1.49771 23.3066C1.29156 23.6728 1.16454 24.0783 1.12484 24.4967C1.02779 25.3301 1.30617 26.1763 1.93016 26.6317C2.55245 27.1016 3.4761 27.2106 4.28653 26.9978C5.09696 26.7849 5.86312 26.241 6.49988 25.5804C7.14802 24.8938 7.71213 24.1325 8.18033 23.3125C9.13888 21.6695 9.74925 19.8222 10.1042 17.9332C10.4592 16.0442 10.5452 14.0914 10.495 12.1445C10.4448 10.1976 10.2702 8.23619 10.0898 6.27056L10.9896 6.47402C9.07421 9.43609 6.45555 11.8781 3.36714 13.5823C3.33158 13.6034 3.28909 13.6095 3.24902 13.5993C3.20895 13.5891 3.17457 13.5634 3.15346 13.5278C3.13235 13.4922 3.12623 13.4498 3.13645 13.4097C3.14667 13.3696 3.17239 13.3352 3.20795 13.3141H3.21135Z" fill="#68E7C2"/>
</svg>
