<svg width="32" height="32" viewBox="0 0 32 32" fill="none" xmlns="http://www.w3.org/2000/svg">
<circle cx="16" cy="16" r="16" fill="#68E7C2"/>
<path d="M15.3462 6.91891C16.2159 6.91891 16.9209 6.21392 16.9209 5.34428C16.9209 4.47464 16.2159 3.76965 15.3462 3.76965C14.4766 3.76965 13.7716 4.47464 13.7716 5.34428C13.7716 6.21392 14.4766 6.91891 15.3462 6.91891Z" fill="#002F36"/>
<path d="M9.31065 15.1922C11.7873 13.6163 13.8355 11.452 15.2725 8.89224C15.3149 8.81697 15.3798 8.75691 15.4581 8.7205C15.5365 8.6841 15.6242 8.6732 15.7091 8.68933C15.794 8.70546 15.8716 8.74782 15.9311 8.81043C15.9906 8.87303 16.029 8.95274 16.0408 9.0383L16.0444 9.06752C16.2139 10.7524 16.3863 12.449 16.4396 14.1624C16.4929 15.8758 16.422 17.6075 16.1131 19.3172C15.8042 21.0269 15.2557 22.706 14.3763 24.2317C13.9389 25.0026 13.411 25.7185 12.8039 26.3643C12.1816 27.0085 11.4162 27.5869 10.4719 27.8455C9.99977 27.9708 9.50729 28.0001 9.02363 27.9316C8.52175 27.8649 8.04463 27.6733 7.63597 27.3744C7.22486 27.0609 6.91418 26.6342 6.74203 26.1467C6.57523 25.6777 6.51924 25.1765 6.57843 24.6823C6.63045 24.1952 6.78369 23.7243 7.02832 23.2998C7.2657 22.8885 7.56836 22.5185 7.92446 22.2043C8.61975 21.5813 9.44942 21.1672 10.2791 20.8706C11.1088 20.5741 11.945 20.374 12.7426 20.1403C13.5324 19.906 14.3048 19.6166 15.0541 19.2741C16.5544 18.5733 17.9582 17.6823 19.2309 16.623C19.8669 16.0933 20.4712 15.5268 21.0407 14.9264C21.3205 14.6211 21.5995 14.3158 21.8609 13.9959C21.9975 13.8396 22.1217 13.6745 22.2487 13.5124L22.4394 13.2677C22.4949 13.1903 22.5475 13.1217 22.5964 13.0384C22.9871 12.4059 23.2398 11.6128 23.1982 10.9102C23.1763 10.5523 23.0733 10.2748 22.8542 10.0403C22.6233 9.79928 22.3258 9.63248 21.9997 9.56123C21.6734 9.48224 21.3308 9.5044 21.0174 9.62477C20.6918 9.75431 20.4035 9.9626 20.1782 10.231C19.9413 10.5091 19.7628 10.8319 19.6531 11.1804C19.5443 11.5348 19.4993 11.9058 19.5202 12.2759C19.5567 13.0348 19.8189 13.7907 20.2074 14.4911C20.6075 15.206 21.0762 15.8804 21.6068 16.5046C22.6884 17.7791 23.8643 19.0769 24.6742 20.6581C25.0745 21.4527 25.36 22.3262 25.4184 23.245C25.4832 24.1754 25.2748 25.1045 24.8188 25.9181C24.3552 26.7323 23.6508 27.3829 22.8023 27.7805C22.1706 28.067 21.4861 28.2189 20.7924 28.2266C20.0987 28.2343 19.411 28.0975 18.773 27.825C18.3296 27.6352 17.9363 27.3449 17.6242 26.9771C17.0085 26.2358 16.8025 25.2096 17.0867 24.3551C17.0909 24.3422 17.0978 24.3302 17.1067 24.3198C17.1156 24.3095 17.1265 24.3011 17.1387 24.295C17.1509 24.2888 17.1642 24.2852 17.1779 24.2843C17.1915 24.2833 17.2052 24.2851 17.2181 24.2894C17.2372 24.2953 17.2542 24.3066 17.2672 24.3219C17.2801 24.3371 17.2884 24.3558 17.2911 24.3756C17.389 25.2016 17.6863 25.9429 18.1917 26.479C18.6766 27.0216 19.426 27.3028 20.206 27.3948C20.9748 27.4984 21.7571 27.3787 22.4598 27.0501C23.1551 26.7215 23.7317 26.1858 24.1104 25.5164C24.4839 24.8396 24.6517 24.0684 24.5932 23.2976C24.5413 22.5227 24.2901 21.7529 23.9263 21.0394C23.539 20.3167 23.0847 19.6321 22.5694 18.9944C22.0581 18.3371 21.5023 17.7185 20.9414 17.0626C20.3713 16.3974 19.867 15.6786 19.4354 14.9161C19.0024 14.1412 18.6788 13.2597 18.6284 12.3212C18.5986 11.8446 18.6543 11.3665 18.7927 10.9095C18.9371 10.4457 19.1733 10.0157 19.4873 9.64522C19.8103 9.25981 20.2242 8.96087 20.6916 8.77538C21.176 8.59213 21.7034 8.55473 22.2088 8.66777C22.7142 8.78082 23.1755 9.03937 23.5356 9.41151C23.7206 9.60832 23.8672 9.83793 23.968 10.0885C24.0575 10.3316 24.1101 10.5866 24.1243 10.8452C24.1519 11.3239 24.0951 11.8038 23.9563 12.2628C23.8295 12.7123 23.6402 13.1418 23.3939 13.5387C23.3333 13.6388 23.2603 13.7388 23.1923 13.8308L22.9922 14.0879C22.8586 14.2581 22.7278 14.4319 22.5854 14.5955C22.3108 14.9307 22.0194 15.2528 21.7258 15.5705C21.1282 16.1988 20.4941 16.7914 19.8269 17.3453C18.4918 18.4574 17.019 19.3929 15.4448 20.1286C14.6531 20.4902 13.837 20.796 13.0026 21.0437C12.1743 21.2855 11.3578 21.4819 10.5924 21.7558C9.82701 22.0297 9.1193 22.3927 8.54744 22.9039C8.26628 23.1504 8.02745 23.4413 7.84047 23.765C7.66361 24.0792 7.55463 24.4271 7.52058 24.786C7.43732 25.501 7.67614 26.227 8.21148 26.6177C8.74537 27.0209 9.53779 27.1144 10.2331 26.9318C10.9284 26.7492 11.5857 26.2825 12.132 25.7158C12.688 25.1267 13.172 24.4736 13.5737 23.7701C14.3961 22.3606 14.9197 20.7757 15.2243 19.1551C15.5288 17.5344 15.6026 15.859 15.5595 14.1887C15.5164 12.5184 15.3667 10.8357 15.2119 9.14932L15.9838 9.32387C14.3406 11.8651 12.0939 13.9602 9.44431 15.4223C9.4138 15.4404 9.37735 15.4456 9.34297 15.4369C9.30859 15.4281 9.2791 15.406 9.26099 15.3755C9.24288 15.345 9.23763 15.3086 9.2464 15.2742C9.25516 15.2398 9.27723 15.2103 9.30773 15.1922H9.31065Z" fill="#002F36"/>
<circle cx="16" cy="16" r="16" fill="#68E7C2"/>
<path d="M15.3462 6.91891C16.2159 6.91891 16.9209 6.21392 16.9209 5.34428C16.9209 4.47464 16.2159 3.76965 15.3462 3.76965C14.4766 3.76965 13.7716 4.47464 13.7716 5.34428C13.7716 6.21392 14.4766 6.91891 15.3462 6.91891Z" fill="#002F36"/>
<path d="M9.31065 15.1922C11.7873 13.6163 13.8355 11.452 15.2725 8.89224C15.3149 8.81697 15.3798 8.75691 15.4581 8.7205C15.5365 8.6841 15.6242 8.6732 15.7091 8.68933C15.794 8.70546 15.8716 8.74782 15.9311 8.81043C15.9906 8.87303 16.029 8.95274 16.0408 9.0383L16.0444 9.06752C16.2139 10.7524 16.3863 12.449 16.4396 14.1624C16.4929 15.8758 16.422 17.6075 16.1131 19.3172C15.8042 21.0269 15.2557 22.706 14.3763 24.2317C13.9389 25.0026 13.411 25.7185 12.8039 26.3643C12.1816 27.0085 11.4162 27.5869 10.4719 27.8455C9.99977 27.9708 9.50729 28.0001 9.02363 27.9316C8.52175 27.8649 8.04463 27.6733 7.63597 27.3744C7.22486 27.0609 6.91418 26.6342 6.74203 26.1467C6.57523 25.6777 6.51924 25.1765 6.57843 24.6823C6.63045 24.1952 6.78369 23.7243 7.02832 23.2998C7.2657 22.8885 7.56836 22.5185 7.92446 22.2043C8.61975 21.5813 9.44942 21.1672 10.2791 20.8706C11.1088 20.5741 11.945 20.374 12.7426 20.1403C13.5324 19.906 14.3048 19.6166 15.0541 19.2741C16.5544 18.5733 17.9582 17.6823 19.2309 16.623C19.8669 16.0933 20.4712 15.5268 21.0407 14.9264C21.3205 14.6211 21.5995 14.3158 21.8609 13.9959C21.9975 13.8396 22.1217 13.6745 22.2487 13.5124L22.4394 13.2677C22.4949 13.1903 22.5475 13.1217 22.5964 13.0384C22.9871 12.4059 23.2398 11.6128 23.1982 10.9102C23.1763 10.5523 23.0733 10.2748 22.8542 10.0403C22.6233 9.79928 22.3258 9.63248 21.9997 9.56123C21.6734 9.48224 21.3308 9.5044 21.0174 9.62477C20.6918 9.75431 20.4035 9.9626 20.1782 10.231C19.9413 10.5091 19.7628 10.8319 19.6531 11.1804C19.5443 11.5348 19.4993 11.9058 19.5202 12.2759C19.5567 13.0348 19.8189 13.7907 20.2074 14.4911C20.6075 15.206 21.0762 15.8804 21.6068 16.5046C22.6884 17.7791 23.8643 19.0769 24.6742 20.6581C25.0745 21.4527 25.36 22.3262 25.4184 23.245C25.4832 24.1754 25.2748 25.1045 24.8188 25.9181C24.3552 26.7323 23.6508 27.3829 22.8023 27.7805C22.1706 28.067 21.4861 28.2189 20.7924 28.2266C20.0987 28.2343 19.411 28.0975 18.773 27.825C18.3296 27.6352 17.9363 27.3449 17.6242 26.9771C17.0085 26.2358 16.8025 25.2096 17.0867 24.3551C17.0909 24.3422 17.0978 24.3302 17.1067 24.3198C17.1156 24.3095 17.1265 24.3011 17.1387 24.295C17.1509 24.2888 17.1642 24.2852 17.1779 24.2843C17.1915 24.2833 17.2052 24.2851 17.2181 24.2894C17.2372 24.2953 17.2542 24.3066 17.2672 24.3219C17.2801 24.3371 17.2884 24.3558 17.2911 24.3756C17.389 25.2016 17.6863 25.9429 18.1917 26.479C18.6766 27.0216 19.426 27.3028 20.206 27.3948C20.9748 27.4984 21.7571 27.3787 22.4598 27.0501C23.1551 26.7215 23.7317 26.1858 24.1104 25.5164C24.4839 24.8396 24.6517 24.0684 24.5932 23.2976C24.5413 22.5227 24.2901 21.7529 23.9263 21.0394C23.539 20.3167 23.0847 19.6321 22.5694 18.9944C22.0581 18.3371 21.5023 17.7185 20.9414 17.0626C20.3713 16.3974 19.867 15.6786 19.4354 14.9161C19.0024 14.1412 18.6788 13.2597 18.6284 12.3212C18.5986 11.8446 18.6543 11.3665 18.7927 10.9095C18.9371 10.4457 19.1733 10.0157 19.4873 9.64522C19.8103 9.25981 20.2242 8.96087 20.6916 8.77538C21.176 8.59213 21.7034 8.55473 22.2088 8.66777C22.7142 8.78082 23.1755 9.03937 23.5356 9.41151C23.7206 9.60832 23.8672 9.83793 23.968 10.0885C24.0575 10.3316 24.1101 10.5866 24.1243 10.8452C24.1519 11.3239 24.0951 11.8038 23.9563 12.2628C23.8295 12.7123 23.6402 13.1418 23.3939 13.5387C23.3333 13.6388 23.2603 13.7388 23.1923 13.8308L22.9922 14.0879C22.8586 14.2581 22.7278 14.4319 22.5854 14.5955C22.3108 14.9307 22.0194 15.2528 21.7258 15.5705C21.1282 16.1988 20.4941 16.7914 19.8269 17.3453C18.4918 18.4574 17.019 19.3929 15.4448 20.1286C14.6531 20.4902 13.837 20.796 13.0026 21.0437C12.1743 21.2855 11.3578 21.4819 10.5924 21.7558C9.82701 22.0297 9.1193 22.3927 8.54744 22.9039C8.26628 23.1504 8.02745 23.4413 7.84047 23.765C7.66361 24.0792 7.55463 24.4271 7.52058 24.786C7.43732 25.501 7.67614 26.227 8.21148 26.6177C8.74537 27.0209 9.53779 27.1144 10.2331 26.9318C10.9284 26.7492 11.5857 26.2825 12.132 25.7158C12.688 25.1267 13.172 24.4736 13.5737 23.7701C14.3961 22.3606 14.9197 20.7757 15.2243 19.1551C15.5288 17.5344 15.6026 15.859 15.5595 14.1887C15.5164 12.5184 15.3667 10.8357 15.2119 9.14932L15.9838 9.32387C14.3406 11.8651 12.0939 13.9602 9.44431 15.4223C9.4138 15.4404 9.37735 15.4456 9.34297 15.4369C9.30859 15.4281 9.2791 15.406 9.26099 15.3755C9.24288 15.345 9.23763 15.3086 9.2464 15.2742C9.25516 15.2398 9.27723 15.2103 9.30773 15.1922H9.31065Z" fill="#002F36"/>
</svg>
