<svg width="16" height="16" viewBox="0 0 16 16" fill="none" xmlns="http://www.w3.org/2000/svg">
<g clip-path="url(#clip0_2_61)">
<path fill-rule="evenodd" clip-rule="evenodd" d="M8.00018 0.333344C6.101 0.334329 4.26409 1.00698 2.81792 2.23103C1.37174 3.45507 0.410605 5.15068 0.106366 7.01468C-0.197874 8.87867 0.17462 10.7895 1.15725 12.4055C2.13988 14.0214 3.66856 15.2372 5.46996 15.8353C5.86737 15.9091 6.01707 15.6628 6.01707 15.4533C6.01707 15.2439 6.00912 14.6367 6.00647 13.9728C3.78093 14.4536 3.31066 13.0337 3.31066 13.0337C2.94769 12.1116 2.42309 11.8693 2.42309 11.8693C1.69715 11.3766 2.47741 11.3859 2.47741 11.3859C3.28152 11.4425 3.70411 12.2065 3.70411 12.2065C4.41681 13.4222 5.57593 13.0705 6.03164 12.8651C6.10317 12.35 6.31116 11.9997 6.54033 11.8008C4.76256 11.6006 2.89469 10.9183 2.89469 7.87029C2.88368 7.07982 3.17868 6.31538 3.71868 5.73513C3.63654 5.53492 3.36232 4.72617 3.79683 3.62763C3.79683 3.62763 4.46847 3.41425 5.9972 4.44297C7.30845 4.08643 8.69191 4.08643 10.0032 4.44297C11.5306 3.41425 12.2009 3.62763 12.2009 3.62763C12.6367 4.72353 12.3625 5.53228 12.2804 5.73513C12.8221 6.31547 13.1177 7.08124 13.1057 7.87293C13.1057 10.9275 11.2338 11.6006 9.4534 11.7968C9.73954 12.0445 9.99521 12.5279 9.99521 13.2708C9.99521 14.335 9.98594 15.1912 9.98594 15.4533C9.98594 15.6654 10.1303 15.913 10.5357 15.8353C12.3373 15.2371 13.8661 14.0211 14.8487 12.4049C15.8314 10.7887 16.2037 8.87754 15.8991 7.01338C15.5945 5.14921 14.6329 3.45358 13.1862 2.22975C11.7396 1.00591 9.90223 0.333704 8.00282 0.333344H8.00018Z" fill="white"/>
<path d="M5.35189 13.3168C5.35189 13.3814 5.27771 13.4367 5.18233 13.438C5.08695 13.4393 5.00879 13.3866 5.00879 13.3221C5.00879 13.2576 5.08297 13.2022 5.17835 13.2009C5.27373 13.1996 5.35189 13.251 5.35189 13.3168Z" fill="#D1D1D1"/>
<path d="M5.96127 13.2154C5.97319 13.28 5.90695 13.3471 5.81157 13.3629C5.71619 13.3787 5.63273 13.3405 5.62081 13.2773C5.60889 13.2141 5.67778 13.1456 5.77051 13.1285C5.86324 13.1114 5.94934 13.1509 5.96127 13.2154Z" fill="#D1D1D1"/>
<path d="M4.69745 13.2721C4.67758 13.334 4.58749 13.3616 4.49741 13.3353C4.40733 13.309 4.34772 13.2352 4.36494 13.172C4.38216 13.1087 4.47357 13.0798 4.56497 13.1087C4.65638 13.1377 4.71467 13.2075 4.69745 13.2721Z" fill="#D1D1D1"/>
<path d="M4.09737 13.0139C4.05365 13.0626 3.9649 13.0495 3.89204 12.9836C3.81918 12.9177 3.80195 12.8282 3.84567 12.7808C3.88939 12.7333 3.97814 12.7465 4.05365 12.8111C4.12916 12.8756 4.14373 12.9665 4.09737 13.0139Z" fill="#D1D1D1"/>
<path d="M3.66949 12.5713C3.62048 12.6056 3.53702 12.5713 3.49065 12.5028C3.47783 12.4905 3.46764 12.4758 3.46067 12.4595C3.45371 12.4432 3.45011 12.4257 3.45011 12.408C3.45011 12.3903 3.45371 12.3728 3.46067 12.3565C3.46764 12.3402 3.47783 12.3254 3.49065 12.3132C3.53967 12.2802 3.62313 12.3132 3.66949 12.3803C3.71586 12.4475 3.71718 12.5371 3.66949 12.5713Z" fill="#D1D1D1"/>
<path d="M3.3542 12.1143C3.32676 12.128 3.29537 12.1318 3.26541 12.1251C3.23544 12.1184 3.20876 12.1015 3.18993 12.0774C3.13827 12.0221 3.12766 11.9457 3.16741 11.9114C3.20715 11.8772 3.27869 11.893 3.33035 11.9483C3.38202 12.0036 3.39394 12.08 3.3542 12.1143Z" fill="#D1D1D1"/>
<path d="M3.02963 11.7547C3.01241 11.7942 2.94882 11.806 2.89715 11.7784C2.84549 11.7507 2.80708 11.6993 2.82562 11.6585C2.84417 11.6177 2.90643 11.6071 2.95809 11.6348C3.00976 11.6625 3.0495 11.7152 3.02963 11.7547Z" fill="#D1D1D1"/>
</g>
<defs>
<clipPath id="clip0_2_61">
<rect width="16" height="16" fill="white"/>
</clipPath>
</defs>
</svg>
